<svg width="73" height="71" viewBox="0 0 73 71" fill="none" xmlns="http://www.w3.org/2000/svg">
<rect x="0.333313" width="72.6667" height="70.6667" rx="16" fill="#ED5E02"/>
<path d="M30.8182 53.1112C31.7108 53.1112 32.4343 52.3532 32.4343 51.4181C32.4343 50.483 31.7108 49.725 30.8182 49.725C29.9256 49.725 29.202 50.483 29.202 51.4181C29.202 52.3532 29.9256 53.1112 30.8182 53.1112Z" fill="#FCFCFC" stroke="#FCFCFC" stroke-width="1.33333" stroke-linecap="round" stroke-linejoin="round"/>
<path d="M48.596 53.1112C49.4885 53.1112 50.2121 52.3532 50.2121 51.4181C50.2121 50.483 49.4885 49.725 48.596 49.725C47.7034 49.725 46.9798 50.483 46.9798 51.4181C46.9798 52.3532 47.7034 53.1112 48.596 53.1112Z" fill="#FCFCFC" stroke="#FCFCFC" stroke-width="1.33333" stroke-linecap="round" stroke-linejoin="round"/>
<path d="M17.8889 17.5555H24.3535L28.6848 40.2264C28.8326 41.0059 29.2374 41.7062 29.8284 42.2045C30.4193 42.7029 31.1587 42.9676 31.9172 42.9524H47.6263C48.3847 42.9676 49.1242 42.7029 49.7151 42.2045C50.306 41.7062 50.7108 41.0059 50.8586 40.2264L53.4444 26.0212H25.9697" stroke="#FCFCFC" stroke-width="2.66667" stroke-linecap="round" stroke-linejoin="round"/>
</svg>
