<svg width="24" height="24" viewBox="0 0 24 24" fill="none" xmlns="http://www.w3.org/2000/svg">
<g clip-path="url(#clip0_278_26491)">
<path d="M2.79889 18.1248L2.95515 17.7505L2.76246 17.3935C1.89992 15.7958 1.40816 13.9569 1.40816 12C1.40816 5.82305 6.29399 0.85 12.2791 0.85C18.2642 0.85 23.15 5.82305 23.15 12C23.15 18.1769 18.2642 23.1499 12.2791 23.1499C10.3185 23.1499 8.47798 22.6174 6.88833 21.6846L6.56657 21.4958L6.20977 21.6048L1.18717 23.1393L1.18698 23.1393C1.09756 23.1667 0.995438 23.1413 0.924239 23.0596L0.924143 23.0594C0.850328 22.9747 0.82762 22.8471 0.874228 22.7354C0.874234 22.7354 0.87424 22.7354 0.874246 22.7353L2.79889 18.1248Z" stroke="#181818" stroke-width="1.7"/>
<path d="M6.2226 8.5119C6.3385 7.57345 7.52976 6.29802 8.47516 6.43954L8.47365 6.43799C9.26388 6.59173 9.91267 7.80943 10.3402 8.61193C10.4105 8.74376 10.4747 8.86439 10.5327 8.96726C10.8237 9.49619 10.6347 10.0321 10.3634 10.2582C10.332 10.2841 10.2991 10.3109 10.2653 10.3384C9.90413 10.6319 9.43492 11.0132 9.54475 11.3958C9.75832 12.14 12.294 14.736 13.5411 15.474C13.923 15.6999 14.2199 15.2611 14.4741 14.8853C14.5342 14.7965 14.5919 14.7113 14.6478 14.6391C14.8602 14.3488 15.384 14.1752 15.8995 14.4618C16.6693 14.9208 17.3945 15.4543 18.0651 16.0548C18.4 16.3414 18.4787 16.7649 18.2466 17.2126C17.8378 18.0011 16.6556 19.0408 15.7974 18.8295C14.2986 18.4606 8.23693 16.0548 6.28988 9.08497C6.18793 8.77797 6.2048 8.64875 6.21944 8.53659L6.2226 8.5119Z" fill="#181818"/>
</g>
<defs>
<clipPath id="clip0_278_26491">
<rect width="24" height="24" fill="white"/>
</clipPath>
</defs>
</svg>
