<svg width="24" height="24" viewBox="0 0 24 24" fill="none" xmlns="http://www.w3.org/2000/svg">
<path d="M21.884 3.00233C21.8921 3.00233 21.9029 3.00233 21.9137 3.00233C22.1964 3.00233 22.4589 3.09026 22.674 3.24177L22.6699 3.23907C22.8268 3.3757 22.9324 3.56779 22.9581 3.78424V3.78829C22.9851 3.95333 23 4.14272 23 4.33617C23 4.4241 22.9973 4.51068 22.9905 4.59726V4.58508C22.6862 7.78981 21.3658 15.5615 20.6949 19.1491C20.4108 20.6683 19.8521 21.1769 19.311 21.2256C18.1354 21.3352 17.2426 20.4491 16.1035 19.7024C14.3206 18.5322 13.3128 17.8044 11.5826 16.664C9.5818 15.3478 10.8791 14.6213 12.0182 13.439C12.3171 13.1279 17.4996 8.41344 17.6011 7.98596C17.6065 7.96026 17.6092 7.93185 17.6092 7.90209C17.6092 7.79657 17.57 7.70053 17.5064 7.62748C17.436 7.58148 17.3481 7.55578 17.2561 7.55578C17.1952 7.55578 17.1371 7.56796 17.0829 7.58825L17.0857 7.58689C16.9071 7.62748 14.059 9.50964 8.54151 13.2334C7.93953 13.7082 7.17927 14.0085 6.35137 14.0437H6.34325C5.17039 13.9017 4.10576 13.6406 3.09523 13.2686L3.19534 13.301C1.92643 12.8871 0.918612 12.6693 1.00519 11.9685C1.05118 11.6042 1.55352 11.2313 2.51218 10.8498C8.41751 8.27681 12.3554 6.58088 14.326 5.762C16.4999 4.60808 19.0201 3.65843 21.6702 3.04291L21.8826 3.00098L21.884 3.00233Z" fill="#181818"/>
</svg>
