<svg width="16" height="16" viewBox="0 0 16 16" fill="none" xmlns="http://www.w3.org/2000/svg">
<path d="M10.6667 2.66675H12C12.3536 2.66675 12.6928 2.80722 12.9428 3.05727C13.1929 3.30732 13.3333 3.64646 13.3333 4.00008V13.3334C13.3333 13.687 13.1929 14.0262 12.9428 14.2762C12.6928 14.5263 12.3536 14.6667 12 14.6667H4C3.64638 14.6667 3.30724 14.5263 3.05719 14.2762C2.80714 14.0262 2.66667 13.687 2.66667 13.3334V4.00008C2.66667 3.64646 2.80714 3.30732 3.05719 3.05727C3.30724 2.80722 3.64638 2.66675 4 2.66675H5.33333" stroke="#181818" stroke-width="1.5" stroke-linecap="round" stroke-linejoin="round"/>
<path d="M10 1.33325H6C5.63181 1.33325 5.33333 1.63173 5.33333 1.99992V3.33325C5.33333 3.70144 5.63181 3.99992 6 3.99992H10C10.3682 3.99992 10.6667 3.70144 10.6667 3.33325V1.99992C10.6667 1.63173 10.3682 1.33325 10 1.33325Z" stroke="#181818" stroke-width="1.5" stroke-linecap="round" stroke-linejoin="round"/>
</svg>
