<svg width="24" height="24" viewBox="0 0 24 24" fill="none" xmlns="http://www.w3.org/2000/svg">
<path d="M9.27274 22C9.77482 22 10.1818 21.5736 10.1818 21.0476C10.1818 20.5216 9.77482 20.0952 9.27274 20.0952C8.77066 20.0952 8.36365 20.5216 8.36365 21.0476C8.36365 21.5736 8.77066 22 9.27274 22Z" fill="#181818" stroke="#181818" stroke-linecap="round" stroke-linejoin="round"/>
<path d="M19.2727 22C19.7748 22 20.1818 21.5736 20.1818 21.0476C20.1818 20.5216 19.7748 20.0952 19.2727 20.0952C18.7707 20.0952 18.3636 20.5216 18.3636 21.0476C18.3636 21.5736 18.7707 22 19.2727 22Z" fill="#181818" stroke="#181818" stroke-linecap="round" stroke-linejoin="round"/>
<path d="M2 2H5.63636L8.07273 14.7524C8.15586 15.1909 8.38355 15.5847 8.71595 15.865C9.04835 16.1454 9.46427 16.2943 9.89091 16.2857H18.7273C19.1539 16.2943 19.5698 16.1454 19.9022 15.865C20.2346 15.5847 20.4623 15.1909 20.5455 14.7524L22 6.7619H6.54545" stroke="#181818" stroke-width="2" stroke-linecap="round" stroke-linejoin="round"/>
</svg>
