<svg width="24" height="24" viewBox="0 0 24 24" fill="none" xmlns="http://www.w3.org/2000/svg">
<path d="M6.60033 1.09614L6.60034 1.09614C10.1562 0.301287 13.8437 0.301286 17.3996 1.09614L17.3996 1.09615L17.7862 1.18253C19.7646 1.62477 21.3261 3.14221 21.8248 5.10718C22.7251 8.65503 22.7251 12.3716 21.8248 15.9194C21.3261 17.8844 19.7645 19.4018 17.7862 19.8441L17.3996 19.9305C15.166 20.4298 12.8805 20.6154 10.6082 20.4874L10.4012 20.4758L10.2467 20.614L7.22195 23.3204L7.22193 23.3204C7.12549 23.4067 6.98972 23.4337 6.8676 23.3908C6.74556 23.348 6.65643 23.2422 6.63505 23.1144L6.63505 23.1144L6.13479 20.126L6.08397 19.8224L5.79002 19.7311C4.01446 19.1794 2.63774 17.7418 2.17526 15.9194C1.27491 12.3716 1.27491 8.65503 2.17526 5.10718L1.69198 4.98453L2.17526 5.10718C2.67391 3.14221 4.2354 1.62478 6.21382 1.18253C6.21383 1.18253 6.21383 1.18253 6.21383 1.18253L6.60033 1.09614Z" stroke="#181818"/>
<path d="M13.5684 4.5C13.5684 4.5 15.7235 4.6551 17.0684 6C18.4133 7.3449 18.5684 9.5 18.5684 9.5" stroke="#181818" stroke-width="0.8" stroke-linecap="round"/>
<path d="M13.5684 6.49976C13.5684 6.49976 14.8614 6.59282 15.6684 7.39976C16.4753 8.20669 16.5684 9.49976 16.5684 9.49976" stroke="#181818" stroke-width="0.8" stroke-linecap="round"/>
<path d="M13.5684 8.5C13.5684 8.5 13.9994 8.53102 14.2684 8.8C14.5373 9.06898 14.5684 9.5 14.5684 9.5" stroke="#181818" stroke-width="0.8" stroke-linecap="round"/>
<path d="M5.08514 7.72947C5.19021 6.88834 6.27015 5.74516 7.12722 5.87201L7.12585 5.87063C7.84224 6.00842 8.4304 7.09985 8.81802 7.81913C8.8817 7.9373 8.93997 8.04542 8.99251 8.13762C9.25633 8.6117 9.08502 9.09204 8.83901 9.29472C8.81056 9.31792 8.78073 9.34189 8.75005 9.36655C8.42267 9.62963 7.99729 9.97139 8.09687 10.3144C8.29048 10.9813 10.5892 13.3082 11.7198 13.9696C12.066 14.1722 12.3351 13.7788 12.5657 13.442C12.6201 13.3624 12.6724 13.286 12.7231 13.2213C12.9156 12.9611 13.3905 12.8056 13.8578 13.0624C14.5557 13.4738 15.2131 13.9519 15.8211 14.4902C16.1247 14.7471 16.196 15.1267 15.9856 15.528C15.6151 16.2347 14.5433 17.1666 13.7653 16.9772C12.4065 16.6465 6.91125 14.4902 5.14613 8.24313C5.0537 7.96795 5.069 7.85213 5.08227 7.75161L5.08514 7.72947Z" fill="#181818"/>
</svg>
